<svg width="300" height="300" id="logo" xmlns="http://www.w3.org/2000/svg">
    <rect  fill="transparent" />
    <circle cx="100" cy="100" r="80" fill="#545df9" />
   <path d="M60,70 C60,50 80,50 80,70 C80,90 70,110 70,130 L70,160 C70,165 75,165 75,160 L75,130 C75,110 60,90 60,70 Z" fill="#fafafa" />

    <!-- Fork -->
    <rect x="90" y="50" width="10" height="60" fill="#fafafa" />
    <rect x="90" y="50" width="2" height="30" fill="#fff" />
    <rect x="95" y="50" width="2" height="30" fill="#fff" />
    <rect x="100" y="50" width="2" height="30" fill="#fff" />

    <!-- Knife -->
    <path d="M120,50 L130,50 L130,100 L120,140 L120,50 Z" fill="#000" />
</svg>